<svg xmlns="http://www.w3.org/2000/svg" xmlns:xlink="http://www.w3.org/1999/xlink" viewBox="0,0,256,256" width="100px" height="100px"><g fill="#b81b1b" fill-rule="nonzero" stroke="none" stroke-width="1" stroke-linecap="butt" stroke-linejoin="miter" stroke-miterlimit="10" stroke-dasharray="" stroke-dashoffset="0" font-family="none" font-weight="none" font-size="none" text-anchor="none" style="mix-blend-mode: normal"><g transform="scale(5.12,5.12)"><path d="M49.42,15.55c0,0 -6.18,18.8 -6.2,18.83l-8.22,-14.16l12.25,-6.54c0.57,-0.3 1.22,-0.22 1.7,0.19c0.49,0.41 0.67,1.07 0.47,1.68zM40.18,33.14l-22.81,-13.68l6.29,-10.22c0.27,-0.46 0.76,-0.73 1.28,-0.74c0.48,0 1.02,0.25 1.3,0.69zM40.22,35.5h-30.41c-1.07,0 -2.03,-0.68 -2.4,-1.69l-6.81,-18.21c-0.23,-0.6 -0.06,-1.28 0.42,-1.71c0.48,-0.43 1.15,-0.51 1.72,-0.21z"></path></g></g></svg>